<svg width="231" height="54" viewBox="0 0 231 54" fill="none" xmlns="http://www.w3.org/2000/svg">
<path fill-rule="evenodd" clip-rule="evenodd" d="M136.935 10.6487L137.232 10.0709C137.37 9.94252 137.57 9.90795 137.836 10.0067C139.27 10.3919 139.439 11.6809 139.874 12.5846C140.238 11.6512 141.108 10.0709 141.61 9.74992C141.743 9.71535 142.245 9.55732 142.609 9.68572C143.044 9.71535 143.377 10.0709 143.582 10.3277L143.377 10.9747C142.911 10.9747 142.844 10.3277 142.178 10.3277C142.009 10.3277 141.876 10.3919 141.707 10.4561L139.669 13.7748L138.804 11.8093C138.435 11.3599 137.77 11.1673 137.002 10.8463C137.002 10.8117 137.002 10.7129 136.935 10.6487ZM141.042 35.4794L141.308 34.867C141.477 34.7682 141.677 34.7386 141.943 34.8028C143.377 35.188 143.51 36.5115 143.981 37.4103C144.344 36.4424 145.215 34.867 145.681 34.5756C145.85 34.5114 146.352 34.383 146.715 34.4818C147.151 34.546 147.483 34.867 147.688 35.1584L147.483 35.7658C147.017 35.7658 146.951 35.1584 146.249 35.1584C146.116 35.1584 145.983 35.188 145.814 35.2522L143.776 38.6005L142.911 36.6053C142.542 36.1559 141.876 35.993 141.108 35.672C141.108 35.6078 141.108 35.5436 141.042 35.4794ZM213.77 21.3751L214.036 20.7923C214.205 20.6639 214.405 20.6343 214.671 20.7281C216.105 21.1183 216.243 22.4023 216.709 23.3406C217.073 22.3727 217.943 20.7923 218.445 20.4713C218.578 20.4417 219.08 20.2787 219.449 20.4071C219.879 20.4417 220.217 20.7923 220.417 21.0541L220.217 21.6961C219.746 21.6961 219.679 21.0541 218.978 21.0541C218.845 21.0541 218.681 21.1183 218.542 21.1825L216.51 24.4962L215.639 22.5356C215.27 22.0813 214.569 21.8887 213.837 21.5677C213.837 21.5331 213.837 21.4393 213.77 21.3751ZM150.924 19.5676L151.191 18.9898C151.36 18.8614 151.559 18.8268 151.826 18.9256C153.265 19.3157 153.398 20.5997 153.864 21.5331C154.232 20.5701 155.098 18.9898 155.6 18.6688C155.733 18.6392 156.235 18.4762 156.603 18.6046C157.039 18.6392 157.371 18.9898 157.571 19.2466L157.371 19.8935C156.905 19.8935 156.834 19.2466 156.132 19.2466C155.999 19.2466 155.835 19.3157 155.697 19.3799L153.664 22.6937L152.794 20.7281C152.43 20.2787 151.728 20.0861 150.991 19.7651C150.991 19.7306 150.991 19.6367 150.924 19.5676ZM129.187 13.355L129.587 13.034C130.222 13.2266 129.787 13.839 129.92 14.2884C129.986 14.5155 130.288 14.9304 130.754 15.0637C130.923 15.0637 131.154 14.9304 131.292 14.8711C132.06 14.4168 131.691 13.5476 131.292 12.9698C131.292 12.871 131.456 12.6488 131.558 12.4858L132.659 14.3526C133.125 14.8711 133.361 14.6094 133.596 14.5155C134.093 14.1303 133.361 13.3254 133.125 13.1624L133.494 12.55C133.893 13.2266 134.697 14.2884 133.827 15.0637C133.729 15.1279 133.596 15.1921 133.325 15.2563C132.659 15.3205 132.424 14.8069 131.958 14.5155C131.86 14.7081 131.891 14.9649 131.625 15.2563C131.558 15.3205 131.456 15.3847 131.292 15.4489C130.99 15.5773 130.555 15.6415 130.155 15.5131C129.187 15.2563 129.72 13.6464 129.187 13.355ZM168.621 32.2595C194.936 36.7683 209.694 33.0644 214.84 29.973C215.004 31.0693 215.772 31.9039 216.975 32.2891C217.477 32.4175 218.112 32.5163 218.778 32.4521C221.384 32.2891 221.886 30.6495 223.12 29.5828C224.324 30.7779 224.354 31.3903 225.86 31.6125C226.459 31.9039 227.626 31.6767 228.261 31.1335C231.4 28.4914 230.166 23.0147 228.43 19.3799C228.594 19.3454 228.83 19.3454 228.83 19.3454C229.132 19.3799 229.429 19.8293 229.731 19.538L227.294 15.8045L225.624 18.2194L226.761 19.4392C226.659 22.5011 229.065 25.6222 229.029 28.3284C228.896 28.5852 228.83 28.6494 228.364 28.9112C227.662 29.1976 226.761 29.2964 225.86 28.9112C224.79 28.363 223.786 27.558 223.924 26.6247C223.786 26.6247 223.924 26.6543 223.786 26.6543C222.818 27.7506 222.286 29.1334 220.616 29.8742C219.346 30.0668 217.708 30.0372 216.807 29.2964C216.341 28.363 215.972 28.0716 216.274 27.0395C214.707 27.9432 211.665 30.7779 207.523 30.8718C205.853 31.5483 189.529 34.9312 168.555 29.8742L165.452 25.3357C164.248 25.3357 163.48 25.9481 162.543 26.4321C159.604 28.2 158.872 31.4199 159.307 34.062C156.434 35.1584 153.096 35.993 150.489 37.3807C147.483 38.798 144.478 40.566 141.743 42.1759C139.971 42.4327 137.867 42.5611 136.536 41.7265C136.367 41.5636 136.167 41.3413 135.901 41.05C135.199 39.7314 135.834 38.2498 136.566 37.3115C135.097 39.1832 134.298 40.8228 135.967 42.7587C137.165 44.0772 139.639 44.2698 141.677 44.2698C144.278 43.371 146.014 42.3389 148.39 41.1142C153.229 38.6005 159.476 34.8966 166.286 37.1831L166.65 34.8028C166.522 34.6744 166.45 34.6102 166.353 34.546C165.052 34.0916 163.613 34.0916 162.277 33.6422C160.807 33.0002 160.474 32.2249 160.305 31.0693C160.94 30.0668 161.442 29.1334 162.712 28.1062C163.245 27.8148 164.182 27.558 164.781 27.879L166.353 30.9705C166.65 31.0693 166.65 31.1631 166.752 31.3557C167.188 31.6767 167.587 31.9039 168.621 32.2595ZM109.15 25.1086L112.023 23.948L113.928 33.6768C112.325 33.4842 111.987 32.9657 111.122 31.9385C109.35 29.652 109.12 27.6519 109.15 25.1086ZM121.24 16.3823C121.537 16.4465 121.706 16.5749 121.875 16.8663C121.875 16.9305 121.875 17.0589 121.706 17.1231L120.103 16.9305C120.503 16.5107 120.303 16.4169 121.24 16.3823ZM122.674 16.9305C122.976 16.9305 123.212 16.9947 123.442 17.1576C123.376 17.5083 122.843 17.2218 122.474 17.1576C122.541 16.9601 122.474 17.0243 122.674 16.9305ZM164.781 43.1439L164.75 42.5611L177.905 38.0227L177.941 38.6992L164.781 43.1439ZM152.061 31.9385C152.696 30.4224 153.398 30.4569 154.063 29.7162C153.695 30.5211 152.358 31.8397 153.362 32.3533C153.464 32.3879 153.628 32.4521 153.828 32.4521C153.997 32.3533 154.166 32.2249 154.232 32.0027C154.366 32.3533 154.232 32.8076 153.828 33.0644C153.695 33.1286 153.331 33.1583 153.126 33.0941C152.292 33.0002 152.128 32.1953 152.061 31.9385ZM212.469 37.8943C212.899 37.7955 213.237 37.2819 213.837 37.1831C214.139 37.2473 214.538 37.4745 214.902 37.3461C215.004 37.3115 215.106 37.1831 215.27 37.0547C215.741 37.1189 215.875 37.5091 215.741 37.8597C215.639 37.9585 215.572 38.0523 215.409 38.1511C214.804 38.5066 213.97 37.7313 213.135 38.3437C212.736 38.798 211.701 38.7289 211.097 38.4424C210.631 38.2153 210.431 38.0869 209.965 38.0227C205.853 38.4424 205.188 41.8204 201.148 42.5957C200.912 42.6599 200.682 42.6895 200.682 42.6895C201.649 41.9191 202.981 41.3413 203.452 40.729C205.587 37.9585 210.196 36.9905 212.469 37.8943ZM151.124 13.2266C150.925 13.1624 150.858 13.0982 150.689 12.9994C150.628 12.2932 150.689 11.9377 151.058 11.2957C151.728 11.0685 151.862 11.0685 152.43 11.1327C152.763 11.1673 153.06 11.2611 153.265 11.4241L152.896 12.0019C152.727 11.7154 152.159 11.6809 151.728 11.8093C151.59 11.8438 151.293 11.9377 151.191 12.229C152.292 12.8068 153.229 12.7772 154.929 12.229L154.729 12.7426L150.689 14.1303C150.756 13.6118 151.257 13.6464 151.124 13.2266ZM218.01 41.6623L230.535 37.4745V38.0523L217.646 42.3685L218.01 41.6623ZM214.072 18.6688L215.106 16.1897L215.204 16.8021C215.808 17.0243 216.607 17.1231 217.011 17.6712C217.073 18.249 216.709 18.6392 216.341 18.9898C215.941 19.2812 215.04 19.4096 214.502 19.0886C214.272 18.9898 214.139 18.896 214.072 18.7676V18.6688ZM214.738 17.8638C215.204 17.7354 215.741 17.9922 216.074 18.1552C216.341 18.3774 215.572 18.2836 215.409 18.3478C215.204 18.2836 214.738 18.1552 214.738 17.8638ZM222.921 33.8052L226.525 35.5436L224.754 37.1831L221.215 35.509L222.921 33.8052ZM144.114 3.14718L145.917 0.831039L148.789 7.23624C148.021 7.46341 147.919 6.33743 147.217 6.17447L147.888 31.0002C147.919 33.578 146.418 35.6374 146.152 35.4448L144.979 6.49547L144.114 3.14718ZM116.831 12.3871L142.609 4.30772L142.342 5.5621L117.133 13.5476L116.831 12.3871ZM113.523 44.5266C114.327 43.4649 113.191 43.0155 114.594 42.0179C114.763 41.05 114.594 40.5363 114.491 39.761L104.844 42.8229V41.7562L114.292 38.798L114.158 35.4794C111.055 34.8324 109.35 33.0644 108.116 30.8718C107.348 28.5556 106.882 26.2691 107.614 24.111L112.12 22.3085L109.586 7.42884L108.285 5.39913C108.049 5.01392 110.487 3.79412 111.757 2.44098L114.763 8.75235C114.092 8.78198 113.728 8.04121 113.257 7.78441C113.022 7.72021 112.858 7.84861 112.791 8.04121L114.926 21.1479L116.196 20.7923C117.866 20.2145 119.166 19.054 120.636 18.1552C120.539 17.928 120.17 18.0564 119.868 17.8984C117.866 16.4811 120.272 16.1601 120.37 15.2563L123.509 16.1255C123.98 16.2835 124.343 16.8366 124.077 17.3502C123.98 17.6712 123.98 17.8984 123.744 17.9922C123.109 18.2836 122.239 18.091 121.471 18.091C120.068 19.2812 118.767 20.5059 116.13 21.5677L115.326 21.7949L116.196 30.8421C116.196 31.0693 116.365 31.1335 116.565 31.0002C117.666 27.8148 118.065 23.8542 121.24 21.6961C121.906 21.3405 122.305 20.9553 123.043 20.9553C123.212 20.9553 123.109 21.0837 123.376 21.1479C123.509 24.4024 119.934 28.5853 123.278 31.2915C124.814 32.2891 127.083 32.5508 128.988 32.1311C130.555 31.6125 132.091 30.7434 132.326 29.3606C132.828 26.4963 132.593 23.7258 131.456 20.9553L132.593 18.6688C135.696 21.5331 132.925 26.6247 136.1 29.6816C137.268 30.3878 139.137 30.5211 140.806 30.131C141.41 29.8742 141.743 29.6816 141.876 29.1976C140.171 26.2691 139.47 23.6616 139.034 21.1479C138.937 20.5355 138.036 20.2787 137.933 19.7306L139.603 17.5083C139.838 18.412 141.508 19.4392 142.112 20.6343C142.178 20.7923 142.178 20.9553 142.178 20.9553C141.876 21.0195 141.81 20.8615 141.508 20.7627C141.508 20.7627 141.272 20.7627 141.108 20.7923C141.641 23.469 142.778 26.8815 143.044 27.3309C144.078 30.2643 142.409 31.3903 141.508 32.0027C140.274 32.7731 138.067 33.0941 136.264 32.615C134.364 32.1311 133.996 30.8421 133.53 29.5186C133.53 29.2322 133.53 29.1334 133.53 29.0396C133.53 28.8124 133.361 28.7482 133.125 28.847C132.69 31.1335 131.727 33.5484 128.788 34.3188C126.484 34.9312 123.98 34.6398 122.372 33.6768C119.934 32.2249 120.37 30.1952 120.303 28.1358C120.636 26.5259 121.373 25.3012 121.604 23.79C121.537 23.6616 121.471 23.6616 121.24 23.6616C118.132 26.4963 118.869 31.0002 116.662 34.4818C116.662 35.7658 116.662 36.9609 116.662 38.1214L124.645 35.9288L124.681 36.7979L116.729 39.1486C116.729 40.0178 116.964 40.9512 116.196 41.7562L114.793 43.2377L113.523 44.5266ZM90.4857 19.3157C90.2195 18.8614 90.3526 18.412 90.8851 18.0268C91.218 17.5428 92.0885 17.5083 92.9897 17.286C93.5223 17.2218 93.3226 16.9601 92.9897 16.8959C92.8566 16.7675 92.4521 16.6391 92.0885 16.7675C92.0219 16.8366 91.9195 16.8959 91.7556 16.9601L92.2882 16.1897C92.621 15.9329 93.256 16.0909 93.6554 16.2539C94.2596 16.7033 94.7563 17.0243 94.7563 17.3502L94.1265 17.8638C92.9897 17.8638 91.4843 17.928 90.7878 18.6688C92.0219 20.6343 93.4557 23.0789 92.9231 25.4296C92.8566 23.4048 91.6891 21.2467 90.4857 19.3157ZM85.9745 50.68C85.9079 50.2898 86.1076 50.033 86.4763 49.7417C86.7118 49.7417 86.9474 49.8108 87.0805 49.9046C87.9152 50.4182 87.3775 51.5146 87.0139 52.1615C86.7118 52.5467 86.4763 52.9023 86.3073 53.1245C86.5428 52.4479 87.7103 51.2923 86.6453 50.517C86.2407 50.2602 85.9745 50.9022 85.9745 50.68ZM83.9416 19.054C84.2386 18.9602 84.6431 19.5676 85.3088 19.6367C85.0067 19.9874 84.3051 19.7306 83.8084 19.6367C83.6036 19.4738 83.8084 19.2812 83.9416 19.054ZM84.0747 17.7009C84.172 17.7996 84.2744 18.1206 84.2744 18.2194C84.3051 18.6392 84.807 18.7034 85.4061 18.6392C86.3431 18.9898 85.9745 20.3775 84.6072 20.7923C84.0081 20.7923 83.4039 20.6985 83.0352 20.2491C82.7024 19.3454 83.8392 18.4416 84.0747 17.7009ZM73.7208 4.27315C73.7208 4.20895 73.8539 3.95215 73.9205 3.82375C81.0689 6.85104 90.4857 3.08298 98.264 3.11261C97.798 3.14718 100.169 4.46575 94.8229 6.3967C96.0262 5.6263 96.6305 4.98429 97.2654 4.24352C98.4995 3.27558 96.3284 3.98672 94.3928 4.20895C91.9553 4.53489 89.0827 5.17689 86.4097 5.5621C82.9687 5.85347 79.799 6.0757 76.4245 5.6263C76.9622 6.36707 77.1619 7.65601 76.1941 8.71778C76.3938 6.53004 75.4567 5.46826 73.7208 4.37192V4.27315ZM70.1824 17.1231C71.8159 17.5428 73.6542 18.6688 73.8539 20.1503C74.2226 21.5331 73.8539 22.9505 73.4187 24.0814C73.5569 22.2443 73.8232 19.7009 71.5189 18.412C70.9505 18.091 70.6843 17.9922 70.1466 17.8984L70.1824 17.1231ZM125.511 4.98429C126.279 4.56452 127.083 4.40155 127.984 4.20895C128.153 4.20895 128.619 4.37192 128.22 4.59415L125.511 4.98429ZM68.2776 5.20653C69.0149 4.79169 69.8496 4.65836 70.7508 4.46575C70.9147 4.46575 71.3858 4.59415 70.9813 4.85589L68.2776 5.20653ZM67.3763 28.9112C75.6564 27.1383 84.2386 28.4272 92.6569 28.521L79.63 33.0299C76.6242 31.2619 71.6162 30.615 67.6119 29.2618C67.3763 29.168 67.2432 29.0692 67.2432 29.0692L67.3763 28.9112ZM65.0721 10.5549C65.3076 9.62152 66.2088 8.78198 66.5775 8.39678C66.2396 9.10298 65.8094 9.77955 65.6404 10.4907C65.6712 10.9105 65.9733 11.0339 66.4085 11.0339C66.6441 11.0339 66.7107 10.8759 66.9411 10.7475C66.9769 11.0043 66.9769 11.2957 66.7107 11.5179C66.511 11.8093 65.8094 11.6809 65.5073 11.5179C65.2718 11.4241 64.9748 10.8463 65.0721 10.5549ZM62.0662 16.4465L98.1974 7.65601C98.5302 7.81404 98.1308 8.78198 98.0284 8.91038L63.034 17.4144L64.5395 18.6392V19.2466L62.3018 18.7034C61.3647 18.3774 60.2996 17.7354 62.0662 16.4465ZM118.634 6.49547C118.7 6.04607 118.967 5.53246 119.571 5.30529C120.303 5.17689 121.005 5.11269 121.839 5.30529C121.906 5.24109 122.075 5.14233 122.141 5.04849C122.275 4.43612 121.942 3.43855 121.404 2.89038L121.839 2.37184C122.741 2.98421 122.239 4.53489 123.642 4.92009C123.908 4.9843 124.246 5.11269 124.246 5.11269L125.782 4.20895C126.55 3.88795 127.749 3.05335 128.788 3.56695C129.054 3.66078 129.187 3.75955 129.351 3.88795C129.52 4.05092 129.52 4.59415 128.855 4.98429C127.585 5.66086 125.982 5.53246 124.712 5.66086C124.343 5.6905 124.01 6.04607 123.708 6.14483C123.575 6.23867 123.908 5.8189 123.908 5.66086C123.509 5.33493 122.976 5.43369 122.51 5.11269C122.408 5.39913 122.075 5.85346 121.373 6.0115L120.037 5.85347C119.402 5.69049 118.803 6.59424 118.634 6.49547ZM61.4006 6.75227C61.4671 6.30287 61.7334 5.78926 62.3018 5.5621C63.0699 5.39913 63.7356 5.36949 64.5702 5.5621C64.6726 5.4979 64.8365 5.36949 64.9082 5.30529C65.0413 4.69292 64.7085 3.66078 64.1708 3.11261L64.5702 2.63358C65.5073 3.24595 64.9748 4.79169 66.4085 5.17689C66.6441 5.20653 67.0077 5.33493 67.0077 5.33493L68.5438 4.46575C69.3119 4.11512 70.5153 3.27558 71.5497 3.82375C71.8159 3.88795 71.9542 4.01635 72.0873 4.11512C72.287 4.30772 72.287 4.85589 71.5855 5.20653C70.3463 5.91767 68.7128 5.78926 67.4788 5.91767C67.1101 5.9473 66.7772 6.27324 66.4751 6.3967C66.342 6.49547 66.6748 6.04606 66.6748 5.91767C66.2396 5.59666 65.7377 5.6905 65.2718 5.33493C65.1386 5.66087 64.8365 6.11027 64.1401 6.27324L62.7678 6.11027C62.1687 5.9473 61.5337 6.85104 61.4006 6.75227ZM51.2156 34.4472L53.0181 32.7089L56.3926 33.9632L54.7898 35.9633L51.0467 34.6398L51.2156 34.4472ZM50.9801 53.3171L51.4153 52.6751C56.2595 50.838 61.9024 49.1342 67.8116 47.8749L67.3456 48.4231C61.5337 49.8404 55.8242 51.3565 51.0467 53.4455L50.9801 53.3171ZM49.2442 23.4048L51.0825 24.1406L49.3773 25.1086C49.4439 25.1086 49.2135 23.469 49.2442 23.4048ZM49.0138 41.2722C48.5785 40.1808 50.3451 39.8598 51.0467 39.1486C51.0467 38.8622 50.1454 38.956 49.577 38.956L50.0481 38.3437H51.8506C52.4497 38.4424 51.8813 39.0844 51.5485 39.277C50.8828 39.8598 49.9457 40.0178 49.7153 40.6006C50.55 41.3068 54.2214 40.9216 55.0203 40.403C54.7898 41.0796 53.4841 41.4352 52.5163 41.5636C51.615 41.6278 49.7153 41.8549 49.0138 41.2722ZM43.3657 44.6896L45.2706 43.1093L49.3108 44.497L47.5441 46.1711L43.3657 44.6896ZM43.2019 44.8822L41.5633 46.4279L37.7894 44.976L39.5611 43.4945L43.2019 44.8822ZM37.1544 31.8397C37.2568 31.7113 37.2568 31.5483 37.3899 31.3903C39.0593 31.8693 39.8939 33.0299 40.2626 34.4472C40.196 35.1238 40.4982 35.7658 39.9963 36.2201C40.2626 34.867 39.3614 33.2867 38.0249 32.5508C37.5231 32.2595 37.2568 32.1953 37.0878 31.9039L37.1544 31.8397ZM92.1192 33.8694L92.4213 33.578C93.087 33.7706 92.621 34.3534 92.79 34.8028C92.8566 35.0596 93.1536 35.4794 93.6247 35.5732C93.7578 35.5732 94.0241 35.4448 94.1265 35.3806C94.8946 34.9608 94.5259 34.062 94.1265 33.5138C94.1265 33.3854 94.2904 33.1583 94.3928 33.0002L95.5295 34.8966C95.9955 35.3806 96.226 35.1238 96.4308 35.0596C96.9633 34.6744 96.226 33.8694 95.9955 33.6768L96.3284 33.0644C96.7278 33.7706 97.5624 34.8324 96.6612 35.6078C96.5946 35.672 96.4308 35.7362 96.1952 35.7658C95.5295 35.83 95.294 35.351 94.8229 35.0596C94.7256 35.2522 94.7563 35.509 94.4593 35.7658C94.3928 35.83 94.2904 35.8991 94.1265 35.993C93.8551 36.1214 93.3891 36.1559 92.9897 36.0572C92.0526 35.7658 92.6569 34.1558 92.1192 33.8694ZM36.5911 15.6119L36.8881 15.2563C37.5589 15.4835 37.0878 16.0613 37.2568 16.5107C37.3234 16.7675 37.6255 17.1873 38.0915 17.3157C38.2246 17.3157 38.4909 17.1576 38.624 17.1231C39.3972 16.6737 39.0285 15.7699 38.624 15.2217C38.624 15.0933 38.7623 14.8711 38.8596 14.7081L39.9963 16.6095C40.4623 17.1231 40.6979 16.8366 40.9283 16.7675C41.4301 16.3823 40.6979 15.5773 40.4623 15.3847L40.7952 14.7723C41.1997 15.4489 42.0344 16.5453 41.1331 17.3157C41.0666 17.3502 40.9283 17.4144 40.662 17.5083C39.9963 17.5428 39.7608 17.0589 39.2948 16.7675C39.1924 16.9601 39.2282 17.2218 38.962 17.5083C38.8596 17.5428 38.7623 17.607 38.624 17.7009C38.327 17.7996 37.861 17.8638 37.4565 17.7651C36.5246 17.4786 37.1237 15.8341 36.5911 15.6119ZM34.5531 5.4979C35.1215 5.27072 36.5246 7.04364 36.8216 8.01158C36.8216 8.04121 37.1902 6.46584 38.4243 5.43369C38.5574 5.3053 38.962 5.30529 39.3255 5.30529C39.6942 5.33492 40.0936 5.6263 40.2268 5.9473C40.2626 6.17447 40.1602 6.33744 39.9298 6.43127C39.7966 6.43127 39.2948 6.36707 39.2282 6.0115L38.624 5.9473C37.3592 6.62387 37.4565 8.23381 36.755 9.36472L35.4543 7.10784L34.1844 6.62387C34.1844 6.20903 33.8823 5.91767 34.5531 5.4979ZM26.2731 20.6639C26.3396 19.7948 26.5035 19.4738 26.9387 18.8614L27.0719 19.3799C27.0719 19.6022 26.4728 21.3405 26.7698 21.4393C26.9387 21.4393 27.0719 21.4393 27.1743 21.3405C27.3381 21.5331 27.1743 21.6961 27.0719 21.9233C27.0719 21.9233 26.9387 22.0813 26.7698 22.1159C26.6366 22.1159 26.4728 22.0813 26.3038 21.9875C26.0375 21.4689 26.2065 20.6639 26.2731 20.6639ZM23.0983 38.7634L32.8172 35.993L32.6841 36.4769L22.9959 39.2474L23.0983 38.7634ZM16.4517 13.8044L25.2694 10.5845C22.832 9.87832 20.0925 10.5203 17.4553 10.5203L18.8225 8.42641C21.3982 8.16961 24.8034 7.88318 27.374 8.58938C27.6044 10.1697 25.8685 11.908 23.8664 12.5846L16.4517 13.8044ZM74.9549 42.8229C74.8217 42.2401 73.1524 41.4697 77.8941 40.8228C78.1297 40.7586 78.2935 40.729 78.1297 40.5364L77.2284 40.1808C76.9622 40.1808 76.9263 40.2746 76.5935 40.403C76.66 39.8894 77.0594 39.6672 77.761 39.5042C78.698 39.5042 79.333 40.0178 79.63 40.6648L79.2664 41.3413C78.5291 41.5981 77.0287 41.4697 76.2914 41.7562C75.1238 42.1759 77.93 44.3982 76.829 45.7514C76.4603 44.334 75.8612 43.4945 74.9549 42.8229ZM16.3186 41.4055C16.1854 40.8228 14.5519 40.082 19.2936 39.44C19.4933 39.3758 19.6572 39.3412 19.4933 39.119L18.5921 38.798C18.3207 38.798 18.29 38.8918 17.9572 39.0202C18.0237 38.5066 18.4231 38.2795 19.1247 38.1214C20.0925 38.1214 20.6916 38.635 20.9937 39.277L20.6301 39.9536C19.8928 40.2104 18.3924 40.082 17.655 40.3388C16.5183 40.7586 19.2936 43.0155 18.1927 44.3686C17.824 42.9513 17.2198 42.1117 16.3186 41.4055ZM90.583 12.6488L90.8851 12.0364C91.0183 11.9377 91.218 11.908 91.4843 12.0019C92.9231 12.3871 93.0563 13.676 93.5223 14.5797C93.8909 13.6118 94.7563 12.0364 95.2274 11.7451C95.3913 11.6809 95.8931 11.5525 96.2618 11.6512C96.697 11.7154 97.0299 12.0364 97.2296 12.3229L97.0299 12.9698C96.5639 12.9698 96.4973 12.3229 95.7958 12.3229C95.6268 12.3229 95.5295 12.3871 95.3606 12.4216L93.3226 15.7699L92.452 13.7748C92.0885 13.355 91.4177 13.1624 90.6496 12.8414C90.6496 12.7772 90.6496 12.713 90.583 12.6488ZM14.9513 25.7209L15.2535 25.1086C15.4173 25.0147 15.5863 24.9802 15.8884 25.0789C17.3222 25.4641 17.4553 26.7531 17.9213 27.6864C18.29 26.6889 19.1247 25.1086 19.6572 24.8518C19.7903 24.7876 20.2922 24.6246 20.6609 24.7234C21.0961 24.7876 21.4289 25.1086 21.6286 25.3999L21.4289 26.0419C20.963 26.0419 20.8606 25.3999 20.1949 25.3999C20.0617 25.3999 19.8928 25.4641 19.7596 25.5283L17.7216 28.847L16.8562 26.8469C16.4875 26.4321 15.786 26.2345 15.0486 25.9135C15.0486 25.8839 15.0486 25.7851 14.9513 25.7209ZM11.8124 44.5612C12.5139 42.2105 13.6814 39.5042 15.8884 37.8597C19.6931 35.7658 24.0353 33.0002 29.5451 33.8694C31.3118 34.1558 32.6175 34.8324 34.1179 35.0942C35.1215 34.6102 34.886 33.1286 34.5838 32.3237C32.213 31.1335 28.0397 31.1335 27.0719 28.684C27.4047 27.2667 29.412 26.4963 30.9482 25.9481C31.5473 25.7555 32.0799 25.7209 32.5151 25.7209L34.4865 29.3606C35.823 30.7434 38.6599 30.6792 40.9641 30.294C43.166 29.7162 44.738 29.1334 46.6378 28.521L47.3086 34.8324C39.0593 38.5708 26.9029 38.2795 21.5314 45.3958C19.9286 46.7144 16.9535 47.7465 14.3164 47.1687C14.0143 47.0403 13.8504 46.9761 13.6149 46.9415C12.6471 46.4279 12.1145 45.623 11.8124 44.5612ZM10.1738 20.0516L42.4645 10.9105C42.8332 11.0685 42.5669 11.7451 42.5003 11.908L9.90753 20.8269C9.44155 21.5331 11.8431 21.6961 11.9814 21.7257L12.1452 22.2739L9.30842 21.7949C8.57105 20.8615 9.24185 20.3775 10.1738 20.0516ZM7.20384 34.9954C7.23456 33.9978 8.54032 33.257 8.74003 32.7089C8.57105 33.3558 8.57105 33.0299 7.93609 34.4818C7.80295 35.188 8.20748 35.1584 8.34062 35.188C8.50448 35.188 8.87316 35.188 8.93973 34.9954C9.20601 35.2868 8.93973 35.672 8.57105 35.8991C8.40719 35.9633 8.10507 35.9633 7.90536 35.8991C7.30625 35.5732 7.10143 35.188 7.20384 34.9954ZM0.157855 38.1214C-0.0418498 35.025 2.66184 32.5163 4.63328 30.3582C2.89739 29.6816 1.96032 28.1062 2.19587 26.3333C2.66184 24.111 3.62964 22.4665 5.03269 20.6343C5.77006 19.6367 6.26676 18.7972 7.0707 17.8984C7.60325 19.3157 5.77006 20.4713 5.16583 21.8245C4.10074 23.4986 3.19439 25.4641 4.23387 27.0395C4.86371 27.8148 6.13363 28.2642 7.43939 28.2L9.04215 25.6222C10.0099 26.2691 9.27257 27.4296 8.87316 28.363C8.23821 29.1038 7.66982 29.973 6.53816 30.3582C4.10074 30.6495 3.53235 32.4521 2.19587 33.6768C1.29463 35.1584 0.290991 37.0251 1.12565 38.4424C1.76061 39.2474 2.79498 39.761 3.99833 39.924C13.0465 39.1486 16.7231 32.6447 25.6688 31.2915C25.2694 28.4914 26.8363 25.4641 30.2108 24.3382C31.4142 23.8838 32.5817 23.6616 33.8516 23.2715C34.0206 23.2715 34.1537 23.3406 34.2868 23.4344C35.4543 24.7234 34.6197 27.0395 37.0264 27.879C40.5647 28.363 43.801 27.0395 46.3715 26.0765L45.9414 22.985C44.6356 22.7924 42.6693 21.9233 41.3635 22.6295C38.7264 23.1134 35.9869 22.4665 33.3856 22.4665L34.9884 20.4713C38.2605 19.4392 42.1316 19.6022 45.7058 20.4071L43.801 4.75712L45.4037 2.56938C46.0745 3.17681 46.305 4.11512 47.0065 4.75712C47.6773 6.14483 48.8089 7.30044 48.9779 8.75235C48.1074 8.84618 47.9743 8.13998 47.2728 7.78441C47.1089 7.78441 47.0065 7.78441 46.9092 7.91281L48.6451 20.9899L56.3926 22.5653L55.2558 6.27324L54.6209 4.11512L56.5923 2.17924C57.7598 3.95215 58.8966 6.81647 59.296 9.00915C58.5945 8.97458 58.4613 8.36221 57.7598 8.20418L59.3626 22.985L66.173 23.4344C66.808 23.4344 66.511 23.948 66.342 24.111C65.9733 24.6246 65.3742 24.916 65.1079 25.3999L59.7978 25.237C58.9939 29.6816 62.1021 35.5436 58.5945 39.9882L57.0941 25.558C54.9895 25.0147 51.784 26.5605 49.7819 27.237C49.7819 30.7137 50.2478 35.2226 46.1411 37.6029C43.8675 39.1486 39.7608 39.3116 37.0264 40.403L34.5838 44.976C33.6519 46.2008 34.2868 48.9713 35.4543 49.8404C37.8918 51.5146 41.6657 51.322 44.8046 50.4182C52.4497 47.8453 57.9288 42.2747 65.0721 39.0844C66.511 38.2498 67.7758 37.8597 69.1481 37.2177C71.4524 36.1856 73.7874 35.5436 75.9585 34.4818C73.6184 32.7731 67.7757 33.0941 65.707 30.8421C64.9082 29.4248 65.4407 27.8148 66.6441 26.8815C77.4947 24.111 89.6152 26.3975 100.671 26.6543C100.937 26.7185 101.172 26.7827 101.172 26.7827L100.235 28.8766L94.1879 30.6495L82.3695 34.9954C82.2006 35.4152 82.9686 35.6078 83.2708 35.8646C84.2078 36.7041 84.8428 38.0523 84.8428 39.2474C84.2386 39.9882 82.7382 39.3116 81.668 39.2128C79.9321 38.635 78.9285 37.7955 78.2935 36.6399L73.2548 38.1214C71.1861 40.6302 68.0113 44.2698 69.6141 47.6823C70.8174 49.1984 72.7172 49.5194 74.9241 49.3268C82.6358 43.8846 91.6532 39.1486 103.308 37.2819C103.743 36.9263 104.107 36.8325 104.209 36.4769L99.1345 6.55967L98.3971 4.92009L100.937 2.72741C102.304 4.56452 103.876 6.59424 104.511 8.91038C104.342 8.97458 104.209 8.97458 103.943 8.84618L102.842 7.97701C102.606 7.91281 102.437 8.01158 102.371 8.23381L105.909 29.168C106.411 32.0669 106.078 33.3558 105.643 35.4152C104.808 37.7313 103.507 39.4054 101.004 40.1808C88.714 40.7932 83.875 48.7787 74.1561 51.001C71.4524 50.6108 69.6141 49.3268 68.7794 47.8453C67.576 44.655 70.1466 41.7265 71.5855 39.0844C68.4466 39.5338 65.8094 41.5636 63.0033 42.8871C55.2558 46.586 50.2478 53.5789 39.4587 53.4801C36.5246 53.0949 35.2188 52.0924 33.8516 50.517C32.9145 48.5219 32.9145 46.4279 33.7185 44.5612L35.8538 40.729C32.7148 40.7932 29.6783 42.1759 27.4713 43.5636C23.9995 45.9785 21.5621 49.6824 16.2213 49.1984C13.917 48.6799 12.5805 47.7811 11.6127 46.3637C10.6091 44.0427 11.9097 41.6623 12.9799 39.6672C12.9133 39.5684 12.9133 39.6326 12.6829 39.6326C10.6091 41.0154 7.70566 42.2747 4.53087 41.8549C2.35972 41.4055 1.05909 40.1808 0.459973 38.9264C0.459973 38.6005 0.157855 38.314 0.157855 38.1214Z" fill="#231F20"/>
</svg>
